<?xml version="1.0" encoding="UTF-8"?>
<svg version="1.1" xmlns="http://www.w3.org/2000/svg" width="512" height="512">
<path d="M0 0 C0.74698179 -0.00265183 1.49396358 -0.00530365 2.26358119 -0.00803584 C4.78067094 -0.0157295 7.29771192 -0.01628804 9.81481266 -0.01688576 C11.63216259 -0.02090035 13.44951163 -0.02533857 15.26685959 -0.03016531 C20.27221919 -0.04213726 25.27756915 -0.04778072 30.28294027 -0.05234647 C35.6771768 -0.05830028 41.07140178 -0.06991075 46.46563053 -0.08063698 C59.4993609 -0.10516713 72.5330951 -0.11978959 85.56684145 -0.13269705 C89.24805315 -0.13640871 92.92926446 -0.14038197 96.61047578 -0.14444971 C119.46869421 -0.16968734 142.32691323 -0.19174121 165.18514252 -0.20417786 C170.48064965 -0.20710757 175.77615677 -0.21006923 181.07166386 -0.21308327 C182.38784354 -0.21382932 183.70402323 -0.21457537 185.06008715 -0.21534403 C206.37770006 -0.22799552 227.69521259 -0.26121535 249.01278996 -0.3028851 C270.89793009 -0.34531362 292.78302751 -0.36887401 314.66820866 -0.37409842 C326.95633484 -0.37751162 339.24433065 -0.38925614 351.53241634 -0.42220116 C361.99859391 -0.45021543 372.46461439 -0.4611949 382.93082654 -0.4500057 C388.26916785 -0.44482253 393.60718024 -0.44768392 398.94547367 -0.47247124 C403.83808051 -0.494999 408.73012283 -0.49419628 413.6227398 -0.47526737 C415.387316 -0.47247231 417.15193077 -0.47803823 418.91644507 -0.4930803 C434.69485853 -0.61930104 446.57050812 2.60746298 458.31311893 13.71904564 C465.32846737 21.15025236 469.75575634 30.87648631 469.77825832 41.05897236 C469.78333287 42.27810792 469.78840741 43.49724348 469.79363573 44.75332254 C469.79423738 46.1081841 469.79473647 47.4630457 469.79514408 48.81790733 C469.79915969 50.25577588 469.80359808 51.6936433 469.80842364 53.13150936 C469.82038437 57.08792402 469.82603645 61.04432648 469.83060479 65.00075567 C469.8365629 69.26614899 469.84817235 73.53152775 469.8588953 77.79691124 C469.88341639 88.1016579 469.89804699 98.40640939 469.91095537 108.71117625 C469.91466782 111.62243555 469.91864102 114.53369438 469.92270803 117.4449532 C469.9479475 135.52829116 469.96999796 153.61162989 469.98243618 171.69498158 C469.98536582 175.88358564 469.98832749 180.07218968 469.99134159 184.26079369 C469.99208764 185.30183681 469.99283369 186.34287994 469.99360235 187.41546983 C470.0062498 204.27118584 470.03946465 221.12679622 470.08114342 237.98246288 C470.12359624 255.29331295 470.14713517 272.604109 470.15235674 289.91501099 C470.1557673 299.63214999 470.16748033 309.349124 470.20045948 319.0662117 C470.2285073 327.34385154 470.23943863 335.62129254 470.22826402 343.8989762 C470.22308925 348.11940379 470.22588665 352.33941531 470.25072956 356.55978203 C470.27332606 360.43100366 470.27240265 364.30151287 470.25352569 368.17274786 C470.25074011 369.56586158 470.25624326 370.9590247 470.27133863 372.35205942 C470.42097783 387.07295867 466.13979846 398.15582591 456.05921268 408.80888939 C448.58825786 415.86176158 438.84846296 420.26605839 428.61750126 420.25726891 C427.38353611 420.25864357 426.14957096 420.26001823 424.87821293 420.26143456 C423.51374125 420.25789566 422.14926982 420.25426086 420.78479862 420.25053978 C419.34580328 420.25025766 417.9068078 420.25041613 416.46781254 420.25098228 C412.56320265 420.25126929 408.65862345 420.2453881 404.75402069 420.23840833 C400.67274919 420.23215878 396.591477 420.23156972 392.51020145 420.23038292 C384.78256381 420.22727433 377.05494031 420.2190673 369.32730889 420.20903343 C360.52932018 420.19785764 351.73133078 420.19235814 342.93333673 420.18733799 C324.83596282 420.1768843 306.73860829 420.15854467 288.64124393 420.13701439 C288.64124393 440.59701439 288.64124393 461.05701439 288.64124393 482.13701439 C305.15542406 481.9789269 305.15542406 481.9789269 321.66907597 481.77666283 C323.74572775 481.76497584 325.82238873 481.75478404 327.89905643 481.74638939 C328.96954227 481.72592552 330.04002811 481.70546165 331.14295292 481.68437767 C337.30705729 481.68149792 340.97194241 481.97221761 345.64124393 486.13701439 C349.69754792 491.35961296 349.41521937 496.79041581 348.64124393 503.13701439 C346.47032186 507.7200721 344.21631748 510.03677233 339.64124393 512.13701439 C336.26551039 512.5789003 332.91399483 512.54594221 329.51345158 512.52469444 C327.96981069 512.53277275 327.96981069 512.53277275 326.39498514 512.54101425 C322.94187539 512.5553376 319.48914661 512.54817915 316.03601933 512.54106712 C313.56228673 512.54676838 311.08855677 512.55373168 308.61483097 512.56186485 C302.59023544 512.57797081 296.56578996 512.57989144 290.54118759 512.57465195 C285.64432201 512.57061033 280.74748724 512.5720537 275.85062313 512.57740021 C275.15364189 512.57814863 274.45666064 512.57889705 273.73855875 512.57966815 C272.3226368 512.58119963 270.90671486 512.58273798 269.49079292 512.58428312 C256.21291392 512.5980107 242.93509384 512.59256867 229.65721618 512.58109791 C217.51092563 512.57116516 205.36478741 512.5841064 193.21852035 512.6080321 C180.74524034 512.63241675 168.2720313 512.64203255 155.79872793 512.63537937 C148.79649707 512.63188574 141.79438337 512.63412865 134.79217052 512.6516304 C128.2085642 512.6678818 121.62520179 512.66318062 115.04158688 512.64432526 C112.62365494 512.64063022 110.20570158 512.64377429 107.78778934 512.65421104 C104.49019425 512.66735947 101.19357273 512.655927 97.89601994 512.63821983 C96.93638861 512.64782484 95.97675729 512.65742985 94.98804623 512.66732591 C89.37058123 512.60514843 86.07582714 511.93147143 81.64124393 508.13701439 C77.58493995 502.91441582 77.8672685 497.48361297 78.64124393 491.13701439 C80.80967209 486.55922161 83.03825287 484.17626809 87.64124393 482.13701439 C91.52454655 481.72158174 95.38432707 481.78837537 99.28577518 481.84404564 C100.28330814 481.84706688 101.2808411 481.85008812 102.30860233 481.85320091 C106.02375525 481.86886 109.73876032 481.91074397 113.45374393 481.94951439 C125.92155643 482.04232689 125.92155643 482.04232689 138.64124393 482.13701439 C138.64124393 461.67701439 138.64124393 441.21701439 138.64124393 420.13701439 C132.1092017 420.17629051 132.1092017 420.17629051 125.44519901 420.21636009 C111.03242599 420.29933238 96.61964336 420.35474274 82.20669365 420.39607525 C73.47096693 420.42179584 64.73546737 420.45682793 55.99988651 420.51421165 C48.3809913 420.56423581 40.76226071 420.59635001 33.14320582 420.60745686 C29.11337621 420.61394368 25.08401731 420.62905899 21.05433941 420.66566467 C17.25147141 420.69992595 13.44926224 420.71000768 9.64625454 420.7025528 C7.60543573 420.70455687 5.56468657 420.7312927 3.52405643 420.75911522 C-10.45174438 420.68204123 -20.96798591 416.07687867 -31.03063107 406.55498314 C-38.0459795 399.12377642 -42.47326847 389.39754247 -42.49577045 379.21505642 C-42.500845 377.99592086 -42.50591954 376.7767853 -42.51114786 375.52070624 C-42.51174951 374.16584468 -42.5122486 372.81098307 -42.51265621 371.45612144 C-42.51667182 370.01825289 -42.52111021 368.58038547 -42.52593577 367.14251941 C-42.53789651 363.18610476 -42.54354858 359.2297023 -42.54811692 355.27327311 C-42.55407503 351.00787979 -42.56568448 346.74250103 -42.57640743 342.47711754 C-42.60092852 332.17237088 -42.61555912 321.86761939 -42.6284675 311.56285253 C-42.63217996 308.65159323 -42.63615315 305.7403344 -42.64022017 302.82907557 C-42.66545963 284.74573762 -42.68751009 266.66239889 -42.69994831 248.5790472 C-42.70287796 244.39044314 -42.70583962 240.2018391 -42.70885372 236.01323509 C-42.70959977 234.97219196 -42.71034582 233.93114884 -42.71111448 232.85855895 C-42.72376193 216.00284293 -42.75697678 199.14723256 -42.79865555 182.2915659 C-42.84110838 164.98071583 -42.8646473 147.66991978 -42.86986887 130.35901779 C-42.87327943 120.64187878 -42.88499246 110.92490478 -42.91797161 101.20781708 C-42.94601943 92.93017724 -42.95695076 84.65273624 -42.94577615 76.37505258 C-42.94060138 72.15462499 -42.94339878 67.93461347 -42.96824169 63.71424675 C-42.99083819 59.84302511 -42.98991478 55.97251591 -42.97103782 52.10128092 C-42.96825224 50.7081672 -42.97375539 49.31500408 -42.98885076 47.92196936 C-43.13848997 33.2010701 -38.85731059 22.11820287 -28.77672482 11.46513939 C-20.77416084 3.91040746 -10.84652891 -0.0186959 0 0 Z M-7.17125607 34.57451439 C-11.55121762 39.7053265 -12.48470973 43.5924193 -12.48180389 50.20320415 C-12.48379477 51.20624018 -12.48578564 52.2092762 -12.48783684 53.24270725 C-12.48492417 54.33675027 -12.48201151 55.43079329 -12.47901058 56.55798912 C-12.4798666 57.7232563 -12.48072262 58.88852348 -12.48160458 60.08910179 C-12.48297173 63.3259246 -12.47983546 66.56270743 -12.47482879 69.79952551 C-12.4704627 73.3427172 -12.47192337 76.88590735 -12.47264671 80.42910099 C-12.47317843 87.30732803 -12.46856051 94.18554203 -12.46214538 101.06376572 C-12.45494722 109.01962041 -12.45415073 116.97546725 -12.45336056 124.93132591 C-12.44810957 145.93739081 -12.43414847 166.94345279 -12.42125607 187.94951439 C-12.40063107 234.87138939 -12.38000607 281.79326439 -12.35875607 330.13701439 C136.80124393 330.13701439 285.96124393 330.13701439 439.64124393 330.13701439 C439.68249393 283.25638939 439.72374393 236.37576439 439.76624393 188.07451439 C439.78445194 173.25923851 439.80265995 158.44396263 439.82141972 143.179739 C439.82810763 129.92608498 439.82810763 129.92608498 439.83213139 116.67243004 C439.83399841 110.75855487 439.84134305 104.84471737 439.85239506 98.93085289 C439.86512045 92.11149464 439.87091704 85.29217259 439.86813384 78.47280237 C439.86692832 74.98396616 439.86884777 71.49521089 439.8796742 68.0063895 C439.88959405 64.27035935 439.88723398 60.5345328 439.88175297 56.79849815 C439.89049096 55.16617162 439.89049096 55.16617162 439.89940548 53.5008688 C439.88940836 43.67699724 439.88940836 43.67699724 435.20374393 35.32451439 C429.35570057 30.33228224 424.97794085 30.01253222 417.45502758 30.00837994 C416.73886184 30.0066269 416.0226961 30.00487386 415.28482836 30.0030677 C412.87864072 29.99840589 410.47251346 30.00087367 408.06632328 30.00330162 C406.3263306 30.00143374 404.58633833 29.99913313 402.84634674 29.9964363 C398.05968885 29.99030907 393.27304841 29.99045298 388.48638749 29.99163067 C383.32609966 29.99183445 378.16581748 29.98631819 373.00553226 29.9815731 C362.89386902 29.97326108 352.78221161 29.97051802 342.67054524 29.96996073 C334.45323614 29.96948585 326.23592898 29.96743255 318.01862049 29.9642601 C294.73118291 29.95545224 271.44374995 29.95084096 248.15631069 29.95159058 C246.27254161 29.95165051 246.27254161 29.95165051 244.35071659 29.95171165 C243.09334084 29.95175254 241.83596508 29.95179342 240.54048704 29.95183554 C220.15656802 29.95224211 199.77266746 29.94267013 179.38875379 29.92857329 C158.46864081 29.91421955 137.54853684 29.90730254 116.6284188 29.90816706 C104.87934043 29.90849937 93.13028141 29.90573768 81.38120747 29.89498901 C71.37897494 29.88589722 61.37677055 29.8836979 51.37453569 29.89049844 C46.26994238 29.89377025 41.16540308 29.89379652 36.06081486 29.88514519 C31.38891386 29.8773085 26.71710997 29.87868255 22.04521142 29.88742932 C20.35413 29.88897056 18.66304143 29.88712477 16.97196843 29.88156924 C14.67424203 29.87452004 12.37685733 29.87979414 10.07914257 29.88812542 C8.16429143 29.88779937 8.16429143 29.88779937 6.21075642 29.88746673 C0.88127591 30.26005525 -3.09599035 31.04261743 -7.17125607 34.57451439 Z M-12.35875607 360.13701439 C-13.27399853 373.56032691 -13.27399853 373.56032691 -7.92125607 384.94951439 C-2.0732127 389.94174653 2.30454702 390.26149655 9.82746029 390.26564884 C10.9017089 390.2682784 10.9017089 390.2682784 11.9976595 390.27096108 C14.40384715 390.27562289 16.80997441 390.27315511 19.21616459 390.27072716 C20.95615727 390.27259504 22.69614954 390.27489565 24.43614113 390.27759248 C29.22279902 390.2837197 34.00943946 390.2835758 38.79610038 390.2823981 C43.95638821 390.28219433 49.11667039 390.28771059 54.2769556 390.29245567 C64.38861885 390.3007677 74.50027626 390.30351076 84.61194263 390.30406805 C92.82925173 390.30454292 101.04655889 390.30659623 109.26386738 390.30976868 C132.55130496 390.31857654 155.83873792 390.32318781 179.12617718 390.3224382 C180.38202323 390.32239825 181.63786928 390.32235829 182.93177128 390.32231712 C184.18914703 390.32227624 185.44652278 390.32223536 186.74200083 390.32219324 C207.12591985 390.32178667 227.50982041 390.33135865 247.89373408 390.34545549 C268.81384706 390.35980923 289.73395103 390.36672624 310.65406907 390.36586171 C322.40314744 390.36552941 334.15220646 390.36829109 345.9012804 390.37903976 C355.90351293 390.38813156 365.90571732 390.39033088 375.90795217 390.38353034 C381.01254549 390.38025853 386.11708479 390.38023226 391.22167301 390.38888359 C395.89357401 390.39672028 400.5653779 390.39534623 405.23727645 390.38659946 C406.92835787 390.38505822 408.61944644 390.38690401 410.31051944 390.39245953 C412.60824584 390.39950874 414.90563054 390.39423464 417.2033453 390.38590336 C419.11819644 390.38622941 419.11819644 390.38622941 421.07173145 390.38656205 C426.40121196 390.01397352 430.37847821 389.23141135 434.45374393 385.69951439 C441.37058616 377.59692778 439.64124393 371.40814138 439.64124393 360.13701439 C290.48124393 360.13701439 141.32124393 360.13701439 -12.35875607 360.13701439 Z M168.64124393 420.13701439 C168.64124393 440.59701439 168.64124393 461.05701439 168.64124393 482.13701439 C198.34124393 482.13701439 228.04124393 482.13701439 258.64124393 482.13701439 C258.64124393 461.67701439 258.64124393 441.21701439 258.64124393 420.13701439 C228.94124393 420.13701439 199.24124393 420.13701439 168.64124393 420.13701439 Z " fill="#47D7A3" transform="translate(42.35875606536865,-0.13701438903808594)"/>
<path d="M0 0 C0.83965302 -0.00686325 1.67930603 -0.0137265 2.54440308 -0.02079773 C5.31305979 -0.03906153 8.08114962 -0.03522883 10.84985352 -0.02954102 C12.77889693 -0.03410307 14.70793872 -0.03940871 16.63697815 -0.04542542 C20.67781176 -0.05435573 24.71844772 -0.05193433 28.75927734 -0.04199219 C33.93222838 -0.03050352 39.1044967 -0.05071289 44.27735806 -0.07990932 C48.26056741 -0.09827407 52.24361325 -0.09797829 56.22685432 -0.0922718 C58.13379944 -0.09211862 60.04075566 -0.09816068 61.94766045 -0.11056328 C64.61658161 -0.12547642 67.28424269 -0.11479416 69.953125 -0.09765625 C70.73721237 -0.10732422 71.52129974 -0.11699219 72.32914734 -0.12695312 C77.50443776 -0.05752503 80.41812232 1.01734777 84.54125977 4.40405273 C87.32832922 8.05523542 88.11057696 11.42571196 88.91625977 15.90405273 C90.08211437 21.35704462 91.00753641 24.14907186 95.54125977 27.40405273 C99.23061669 29.24873119 103.50561319 28.75414826 107.54125977 28.40405273 C111.86656937 26.65552332 113.41931211 24.47159315 115.54125977 20.40405273 C116.06835464 18.25307973 116.52413162 16.08367412 116.91625977 13.90405273 C118.47725188 6.63311579 120.43342722 4.4759411 126.54125977 0.40405273 C129.31797133 0.1991084 131.995212 0.11035174 134.77294922 0.11352539 C136.03199066 0.10344955 136.03199066 0.10344955 137.31646729 0.09317017 C140.09588516 0.07414706 142.87506205 0.07026359 145.65454102 0.06811523 C147.58644206 0.06168951 149.51834211 0.05496132 151.45024109 0.04794312 C155.50298315 0.035959 159.5556399 0.03226338 163.60839844 0.03344727 C168.79706965 0.03365034 173.98519241 0.00636546 179.17373371 -0.02809715 C183.16550702 -0.05035706 187.15714826 -0.05439053 191.14897728 -0.05333328 C193.06151403 -0.05569127 194.97405431 -0.06452595 196.88652992 -0.07999802 C199.5652034 -0.09963642 202.2426934 -0.09382826 204.92138672 -0.08178711 C205.70861618 -0.09302612 206.49584564 -0.10426514 207.30693054 -0.11584473 C212.48280688 -0.05684525 215.48794362 0.91176884 219.54125977 4.40405273 C222.70753291 8.35368628 222.9237528 11.49843527 222.9453125 16.48583984 C222.95217575 17.1791893 222.959039 17.87253876 222.96611023 18.5868988 C222.98434423 20.86860901 222.98054581 23.14962936 222.97485352 25.43139648 C222.97941708 27.02413658 222.98472317 28.61687471 222.99073792 30.20960999 C222.99966239 33.54428111 222.9972537 36.87871266 222.98730469 40.21337891 C222.97581752 44.47837244 222.99602528 48.7425377 223.02522182 53.00742245 C223.04360359 56.29579385 223.04328745 59.58396749 223.0375843 62.8723774 C223.03743132 64.44439417 223.04345673 66.01642454 223.05587578 67.58839226 C223.07082181 69.7904075 223.06008452 71.99090213 223.04296875 74.19287109 C223.04280258 75.44353867 223.04263641 76.69420624 223.04246521 77.98277283 C222.30705724 83.00274329 220.19863632 85.91522295 216.46704102 89.26733398 C211.9345025 91.02830689 207.54058758 90.71758449 202.72875977 90.59155273 C201.7497168 90.57801758 200.77067383 90.56448242 199.76196289 90.55053711 C197.35449351 90.51530585 194.94816412 90.46604538 192.54125977 90.40405273 C192.54494694 90.97058626 192.54863411 91.53711979 192.55243301 92.120821 C192.64084083 105.91748575 192.70674139 119.71410075 192.74850845 133.51098824 C192.76938576 140.18314597 192.79770661 146.85505959 192.84301758 153.52709961 C192.88646916 159.96561569 192.91039582 166.40393513 192.92076874 172.84258652 C192.92816124 175.29939749 192.94259695 177.75619767 192.96417999 180.21292496 C192.99320374 183.65333593 192.99721604 187.09293362 192.99536133 190.53344727 C193.00974243 191.54980759 193.02412354 192.56616791 193.03894043 193.61332703 C193.00539343 199.36175337 192.58217248 202.96690965 188.54125977 207.40405273 C184.56305002 210.32515135 181.72538758 210.7816716 176.83021545 210.79173279 C176.16864124 210.79711833 175.50706703 210.80250386 174.82544512 210.8080526 C172.61602365 210.82232198 170.40720218 210.81523137 168.19775391 210.80810547 C166.6107078 210.8138096 165.02366579 210.82077403 163.43663025 210.8289032 C159.13081649 210.84684516 154.82520641 210.84566428 150.5193665 210.83996081 C146.92339626 210.83687043 143.32746523 210.84295975 139.73150057 210.84899956 C131.24756226 210.86304661 122.76372464 210.86148203 114.27978516 210.85009766 C105.5302071 210.8386162 96.78093555 210.85269209 88.03139788 210.87949413 C80.51616923 210.9016524 73.00103679 210.90828823 65.4857778 210.90241772 C60.9986283 210.89904724 56.51167529 210.90146921 52.0245533 210.91866875 C47.80470249 210.93413787 43.58530566 210.93018293 39.36547279 210.9113636 C37.81832211 210.90767759 36.27113779 210.9107866 34.7240181 210.92124939 C32.60858576 210.93446142 30.49465595 210.92291266 28.37928772 210.90525818 C27.19666886 210.90504889 26.01405001 210.90483961 24.79559422 210.90462399 C20.00740582 210.16812026 16.87857737 207.90294706 13.68754578 204.32637024 C11.91522691 199.80805772 12.14982107 195.45675799 12.20068359 190.64697266 C12.20002647 189.02190796 12.20002647 189.02190796 12.19935608 187.36401367 C12.20144411 183.78733221 12.22477658 180.21112095 12.24829102 176.63452148 C12.2538869 174.15302283 12.25815703 171.67152086 12.26115417 169.1900177 C12.27260345 162.66170079 12.30207168 156.13358441 12.33526611 149.60534668 C12.36758722 142.94258403 12.37965916 136.27976306 12.39477539 129.61694336 C12.42694102 116.54589431 12.47756122 103.47498419 12.54125977 90.40405273 C11.6341626 90.43547363 11.6341626 90.43547363 10.70874023 90.4675293 C7.94475205 90.55114219 5.18103064 90.60285327 2.41625977 90.65405273 C1.46493164 90.68756836 0.51360352 90.72108398 -0.46655273 90.75561523 C-6.30652936 90.83672602 -9.95495 90.52901949 -14.45874023 86.40405273 C-17.62501338 82.45441919 -17.84123326 79.3096702 -17.86279297 74.32226562 C-17.86965622 73.62891617 -17.87651947 72.93556671 -17.8835907 72.22120667 C-17.90182469 69.93949646 -17.89802628 67.6584761 -17.89233398 65.37670898 C-17.89689755 63.78396889 -17.90220364 62.19123076 -17.90821838 60.59849548 C-17.91714286 57.26382436 -17.91473417 53.92939281 -17.90478516 50.59472656 C-17.89329799 46.32973303 -17.91350575 42.06556777 -17.94270229 37.80068302 C-17.96108406 34.51231162 -17.96076792 31.22413798 -17.95506477 27.93572807 C-17.95491179 26.3637113 -17.9609372 24.79168093 -17.97335625 23.21971321 C-17.98830228 21.01769797 -17.97756499 18.81720334 -17.96044922 16.61523438 C-17.96028305 15.3645668 -17.96011688 14.11389923 -17.95994568 12.82533264 C-17.21930566 7.7696477 -15.13082905 4.79643592 -11.2374115 1.55430603 C-7.48896536 0.00260663 -3.99079214 -0.02285317 0 0 Z M12.54125977 30.40405273 C12.54125977 40.30405273 12.54125977 50.20405273 12.54125977 60.40405273 C19.22675006 60.61357643 19.22675006 60.61357643 25.91308594 60.79199219 C34.83454233 61.14358089 34.83454233 61.14358089 38.54125977 64.40405273 C42.49153111 69.19336982 41.98187304 74.25587684 41.97363281 80.16113281 C41.9839066 81.2619881 41.99418039 82.36284338 42.00476551 83.49705791 C42.03462438 87.05595598 42.04419107 90.61457802 42.05297852 94.17358398 C42.06844425 96.37260911 42.08524105 98.57162529 42.10339355 100.77062988 C42.16131923 108.9191721 42.19347622 117.06788102 42.22875977 125.21655273 C42.33188477 143.42842773 42.43500977 161.64030273 42.54125977 180.40405273 C82.14125977 180.40405273 121.74125977 180.40405273 162.54125977 180.40405273 C162.75135508 144.09907959 162.75135508 144.09907959 162.92919922 107.79394531 C162.97912598 100.77062988 162.97912598 100.77062988 163.00627136 97.48222351 C163.02241618 95.18664173 163.03270777 92.89101424 163.03837585 90.59538269 C163.04810218 87.11705094 163.07642638 83.63931677 163.10888672 80.16113281 C163.10746076 79.13923512 163.10603479 78.11733744 163.10456562 77.06447315 C163.21977311 68.43102996 163.21977311 68.43102996 166.54125977 64.40405273 C171.10008648 60.39405565 176.58957417 60.8531113 182.35375977 60.71655273 C185.71563477 60.61342773 189.07750977 60.51030273 192.54125977 60.40405273 C192.54125977 50.50405273 192.54125977 40.60405273 192.54125977 30.40405273 C177.03125977 30.40405273 161.52125977 30.40405273 145.54125977 30.40405273 C143.56125977 34.03405273 141.58125977 37.66405273 139.54125977 41.40405273 C132.02490908 51.05003611 122.5664319 58.06982253 110.15283203 59.72192383 C107.69014228 59.87620079 105.25863751 59.92303441 102.79125977 59.90405273 C101.91945068 59.89833252 101.0476416 59.8926123 100.14941406 59.88671875 C88.57473072 59.56920873 78.85551118 55.52305754 70.54125977 47.40405273 C65.66625223 42.02506827 62.85175598 37.02504516 59.54125977 30.40405273 C44.03125977 30.40405273 28.52125977 30.40405273 12.54125977 30.40405273 Z " fill="#63E4A6" transform="translate(78.458740234375,89.595947265625)"/>
<path d="M0 0 C4.61518891 2.18614212 6.72346478 4.49941804 9 9 C9.34057617 11.67895508 9.34057617 11.67895508 9.29296875 14.51953125 C9.2784668 16.0519043 9.2784668 16.0519043 9.26367188 17.61523438 C9.23853516 18.67033203 9.21339844 19.72542969 9.1875 20.8125 C9.16719727 22.42415039 9.16719727 22.42415039 9.14648438 24.06835938 C9.11122577 26.71275455 9.06194366 29.35611748 9 32 C9.77794922 32.13881592 10.55589844 32.27763184 11.35742188 32.4206543 C15.89855103 33.4162289 19.27144371 36.32899786 23 39 C23.94875 39.639375 24.8975 40.27875 25.875 40.9375 C29.61681285 44.56925953 30.83704329 48.45191122 31.375 53.5625 C30.78905431 58.93366881 29.03982214 61.88590485 25.375 65.8125 C21.60019537 68.70682911 17.68189298 69.28647947 13 69 C9.13476178 67.75526227 6.38411272 66.2839094 3.125 63.875 C-0.91116338 61.45330197 -4.31593058 60.79817295 -9 61 C-12.89949563 62.25078162 -14.63435042 63.59586099 -17.375 66.625 C-19.45494473 70.94488521 -19.82730415 74.28943147 -19 79 C-16.56945315 84.04805885 -14.0788246 85.85774697 -9 88 C-5.52633546 88.60209973 -5.52633546 88.60209973 -1.875 88.875 C10.98009011 90.3165443 21.51734637 95.50948659 30.03515625 105.3515625 C37.75602744 115.67884244 40.85133049 127.0983715 39.74609375 139.953125 C38.40384609 148.61122699 35.1458061 155.92451661 30 163 C29.195625 164.2065625 29.195625 164.2065625 28.375 165.4375 C23.938817 170.22390797 18.03928239 174.44588682 12 177 C11.01 177 10.02 177 9 177 C9.02094727 177.69561035 9.04189453 178.3912207 9.06347656 179.10791016 C9.1469698 182.28012458 9.19876529 185.45210731 9.25 188.625 C9.28351563 189.71941406 9.31703125 190.81382812 9.3515625 191.94140625 C9.42609961 198.09071747 9.45903291 202.31346541 5 207 C-0.22259857 211.05630398 -5.65340142 210.77397544 -12 210 C-16.61253893 207.81511314 -18.73310995 205.50420316 -21 201 C-21.34057617 198.22924805 -21.34057617 198.22924805 -21.29296875 195.26171875 C-21.28330078 194.19501953 -21.27363281 193.12832031 -21.26367188 192.02929688 C-21.23853516 190.92650391 -21.21339844 189.82371094 -21.1875 188.6875 C-21.16719727 187.00430664 -21.16719727 187.00430664 -21.14648438 185.28710938 C-21.1112138 182.52424771 -21.06192235 179.76237171 -21 177 C-22.1612439 176.79528076 -22.1612439 176.79528076 -23.34594727 176.58642578 C-30.13679161 175.0859559 -36.69991141 169.20579457 -40.9375 163.8125 C-43.22895615 159.9035454 -43.44744622 156.27944303 -42.5859375 151.890625 C-40.95282958 146.65680925 -38.47959164 144.07971925 -34 141 C-28.83954014 139.27984671 -24.68223525 139.43214434 -19.8125 141.8125 C-17.63968478 142.98183949 -15.92918118 144.06168091 -14.0625 145.6875 C-10.64285417 147.86363825 -7.00169494 148.11135151 -3 148 C1.7008933 146.4034702 4.40430076 144.2300284 7 140 C8.16897659 135.79168428 8.15415568 133.50528805 6.875 129.3125 C4.80665126 125.65841723 3.53228306 124.24031961 0 122 C-3.31269954 121.09542385 -6.66858698 120.62547106 -10.0625 120.125 C-23.80683778 117.76223185 -34.23351257 113.33597513 -43 102 C-50.83437725 89.39351997 -53.27709155 76.25533826 -50.31640625 61.62109375 C-46.05516583 49.1910024 -37.51848808 39.02056704 -25.98046875 32.8125 C-24 32 -24 32 -21 32 C-21.02094727 31.33468262 -21.04189453 30.66936523 -21.06347656 29.98388672 C-21.14700609 26.94774698 -21.19877603 23.91184957 -21.25 20.875 C-21.28351563 19.82828125 -21.31703125 18.7815625 -21.3515625 17.703125 C-21.42816597 11.65145087 -21.34981058 7.63092078 -17 3 C-11.77740143 -1.05630398 -6.34659858 -0.77397544 0 0 Z " fill="#60E2A5" transform="translate(412,90)"/>
</svg>
